<svg xmlns="http://www.w3.org/2000/svg" xmlns:xlink="http://www.w3.org/1999/xlink" viewBox="2375 3701 375 100">
  <defs>
    <style>
      .cls-1 {
        opacity: 0;
        fill: url(#linear-gradient);
      }

      .cls-2 {
        clip-path: url(#clip-path);
      }

      .cls-3 {
        opacity: 0.25;
      }

      .cls-4 {
        fill: #e2e2e8;
      }

      .cls-4, .cls-5, .cls-6 {
        fill-rule: evenodd;
      }

      .cls-5 {
        fill: #ababb2;
      }

      .cls-6 {
        fill: #f8f8f8;
      }
    </style>
    <linearGradient id="linear-gradient" y1="1" x2="1" gradientUnits="objectBoundingBox">
      <stop offset="0" stop-color="#e632b0"/>
      <stop offset="1" stop-color="#904e95"/>
    </linearGradient>
    <clipPath id="clip-path">
      <rect id="Rectangle_682" data-name="Rectangle 682" class="cls-1" width="375" height="100" transform="translate(0 567)"/>
    </clipPath>
  </defs>
  <g id="background_city2" class="cls-2" transform="translate(2375 3134)">
    <g id="XMLID_1_" class="cls-3" transform="translate(-43 568)">
      <path id="XMLID_38_" class="cls-4" d="M251.413,63.161h18.7V57.933h23.432V37.946l25.953,9.717V57.933h25.154v-36.9h15.375v22.94h18.942v-6.95h8.795V0h31.98V31.119l3.506-1.661,5.9,2.829v4.059h32.1V99.2H0V27.614H17.4V9.963l19.434,8.672V62.361H42V29.52H67.035V49.938H81.18v-6.15H87.7v-18.2h23.8V51.66l2.645-1.476,4.428,2.522v3.629H142.5V68.265h7.811V53.259l19.373,7.319v7.688h5.228V40.59h24.969V57.81h14.145V52.583H220.6V37.269h23.8V59.225l2.645-1.292,4.366,2.153Z"/>
      <path id="XMLID_35_" class="cls-5" d="M76.875,78.605H72.14V92.32H64.883v5.043L61.07,95.149l-3.321,1.907V61.816L35.178,71.963V87.707H29.09V54.128H0V113.6H461.252V60.34H438.866V93.734h-4.674V81.619L416.849,73.87v27.122l-2.521-1.476-2.952,1.722V97.363h-.8V81.988H400.552V37.4h-23.8V76.391l-4.92-8.487-9.84,17.036v4.244h-4.305V105.3l-5.043-5.043-1.968-20.726c4.551-.369,8.3-2.276,9.348-4.859h.492a1.392,1.392,0,0,0,1.414-1.415h0a1.392,1.392,0,0,0-1.414-1.415h-.431c-1.046-2.768-5.166-4.859-10.209-5.043l-.553-11.07-.677,11.132c-5.043.185-9.164,2.276-10.209,5.043h-.431a1.392,1.392,0,0,0-1.414,1.415h0a1.392,1.392,0,0,0,1.414,1.415h.492c1.045,2.522,4.736,4.49,9.348,4.859l-1.968,20.726-9.287,9.287V79.343H322.508v22.448h-3.383V89.921h-6.212V67.1h-9.779V49.085H268.449v33.7h-7.257V63.968L234.255,51.914v42l-3.628-2.091V81.188H217.158V71.9h-9.9V57.941h-18.02V70.733h-8.18V37.4h-23.8v2.583H141.881v18.2h-3.813a14.875,14.875,0,0,0-7.626-2.091l-.677-11.132L129.089,56.1c-5.043.185-9.164,2.276-10.209,5.043h-.431a1.392,1.392,0,0,0-1.415,1.415h0a1.392,1.392,0,0,0,1.415,1.415h.492c1.046,2.522,4.736,4.49,9.348,4.859l-1.968,31.488-9.287,9.287V79.343H102.952v22.448H99.569V89.921H93.357V67.1H76.875v11.5ZM135.3,67.966v33.825h2.891V105.3l-5.043-5.043L131.18,68.765A16.888,16.888,0,0,0,135.3,67.966Z" transform="translate(0 -14.399)"/>
      <path id="XMLID_2_" class="cls-6" d="M375.787,83.8h1.784v1.784h-1.784V83.8Zm61.685-34.317V44.869H432.86v4.613Zm0,4.736H432.86v4.613h4.612V54.217Zm8.795,4.674V54.278h-4.613v4.613Zm-4.674-9.41h4.613V44.869h-4.613v4.613ZM355.615,73.159h5.72V78.94h-5.72V73.159ZM137.1,79.8h2.706v2.706H137.1V79.8Zm85.424,7.442h3.2v3.444h-3.2V87.242Zm6.888,0h3.2v3.444h-3.2V87.242Zm6.888,0h3.2v3.444h-3.2V87.242ZM211.458,50.9h3.2V54.34h-3.2V50.9Zm6.888,0h3.2V54.34h-3.2V50.9Zm6.888,0h3.2V54.34h-3.2V50.9Zm-13.776-7.2h3.2v3.444h-3.2V43.7Zm6.888,0h3.2v3.444h-3.2V43.7Zm6.888,0h3.2v3.444h-3.2V43.7ZM190.61,94.561h2.706v4H190.61v-4ZM155.186,83.614h11.009v1.045H155.186V83.614ZM137.1,74.327h2.706v2.706H137.1V74.327ZM132,79.8h2.706v2.706H132V79.8Zm0-5.474h2.706v2.706H132V74.327ZM323.942,57.046h6.642v6.642h-6.642V57.046Zm18.819,0H349.4v6.642h-6.642V57.046Zm40.406,34.932h1.784v1.784h-1.784V91.978Zm0-4.121h1.784v1.784h-1.784V87.857Zm-3.69,8.18h1.784V97.82h-1.784V96.037Zm0-4.059h1.784v1.784h-1.784V91.978Zm0-4.121h1.784v1.784h-1.784V87.857Zm-3.69,8.18h1.784V97.82h-1.784V96.037Zm0-4.059h1.784v1.784h-1.784V91.978Zm7.38-8.18h1.784v1.784h-1.784V83.8Zm-3.69,0h1.784v1.784h-1.784Z" transform="translate(-50.82 -16.824)"/>
    </g>
  </g>
</svg>
