<svg xmlns="http://www.w3.org/2000/svg" viewBox="0 0 29.563 40">
  <defs>
    <style>
      .cls-1 {
        fill: 'red';
      }
    </style>
  </defs>
  <g id="Group_5" data-name="Group 5" transform="translate(-43 -15)">
    <path id="Path_1382" data-name="Path 1382" class="cls-1" d="M14.781,37.007a1.061,1.061,0,0,1-.609-.212,59.272,59.272,0,0,1-7.656-7.6C2.2,23.974,0,19.126,0,14.781a14.781,14.781,0,1,1,29.563,0c0,4.344-2.2,9.219-6.543,14.437a58.307,58.307,0,0,1-7.656,7.576A.759.759,0,0,1,14.781,37.007Zm0-35.6A13.408,13.408,0,0,0,1.4,14.781c0,4,2.093,8.53,6.225,13.51a55.977,55.977,0,0,0,7.179,7.179c2.278-1.881,13.377-11.5,13.377-20.689A13.414,13.414,0,0,0,14.781,1.4Z" transform="translate(43 15)"/>
    <path id="Path_1383" data-name="Path 1383" class="cls-1" d="M50.98,146H46.238a.237.237,0,0,1-.238-.238h0a1.566,1.566,0,0,1,1.563-1.563h2.119a1.566,1.566,0,0,1,1.563,1.563h0A.282.282,0,0,1,50.98,146Z" transform="translate(9.185 -91.001)"/>
    <path id="Path_1384" data-name="Path 1384" class="cls-1" d="M23.823,59.395a.855.855,0,0,1-.556-.212A43.6,43.6,0,0,1,17.36,53.3C14,49.249,12.3,45.487,12.3,42.123a11.228,11.228,0,0,1,1.96-6.411,4.471,4.471,0,0,1-.98-2.808.882.882,0,0,1,.874-.874h4.132a11.4,11.4,0,0,1,5.589-1.43,11.692,11.692,0,0,1,5.589,1.43h4.768a.882.882,0,0,1,.874.874,4.594,4.594,0,0,1-1.351,3.232,11.393,11.393,0,0,1,1.7,6.013c0,3.391-1.7,7.152-5.06,11.205a47.532,47.532,0,0,1-5.987,5.828A.984.984,0,0,1,23.823,59.395Zm-9.113-25.96a3.077,3.077,0,0,0,.927,1.722.692.692,0,0,1,.079.927A10,10,0,0,0,13.7,42.15c0,2.993,1.642,6.543,4.742,10.3a41.362,41.362,0,0,0,5.4,5.4,45.106,45.106,0,0,0,5.4-5.4C32.353,48.719,34,45.143,34,42.123a10.093,10.093,0,0,0-1.775-5.748.741.741,0,0,1,.159-.98,3.082,3.082,0,0,0,1.245-1.987h-4.4a.532.532,0,0,1-.344-.106,10.15,10.15,0,0,0-10.119,0,.863.863,0,0,1-.344.106H14.711Z" transform="translate(33.958 -7.494)"/>
    <path id="Path_1385" data-name="Path 1385" class="cls-1" d="M28.742,66.933a6.516,6.516,0,0,1-5.113-2.49,6.517,6.517,0,1,1,0-8.053,6.513,6.513,0,1,1,5.113,10.543Zm-5.139-4a1.255,1.255,0,0,1,1.007.5,5.113,5.113,0,1,0,0-6.093l-.424.609a.691.691,0,0,1-.556.291h0a.691.691,0,0,1-.556-.291L22.6,57.37a5.113,5.113,0,1,0,0,6.093h0A1.21,1.21,0,0,1,23.6,62.933Z" transform="translate(34.179 -24.622)"/>
    <path id="Path_1386" data-name="Path 1386" class="cls-1" d="M30.506,56.5a5.884,5.884,0,0,0-4.689,2.358l-.45.583-.45-.583a5.83,5.83,0,1,0-4.689,9.3A5.884,5.884,0,0,0,24.917,65.8a.546.546,0,0,1,.874,0,5.83,5.83,0,1,0,4.715-9.3Zm-9.589,8.106a2.278,2.278,0,0,1-2.278-2.278.9.9,0,0,1,.026-.265.9.9,0,0,0,.265.026,1.131,1.131,0,0,0,1.139-1.139,1.159,1.159,0,0,0-.212-.662,2.412,2.412,0,0,1,1.06-.265,2.291,2.291,0,0,1,0,4.583Zm8.927,0a2.278,2.278,0,0,1-2.278-2.278.9.9,0,0,1,.026-.265,1.33,1.33,0,0,0,.318.053,1.131,1.131,0,0,0,1.139-1.139,1.159,1.159,0,0,0-.212-.662,2.293,2.293,0,0,1,3.311,2.04A2.331,2.331,0,0,1,29.844,64.606Z" transform="translate(32.415 -26.533)"/>
  </g>
</svg>
