<svg xmlns="http://www.w3.org/2000/svg" viewBox="0 0 34.133 26">
  <defs></defs>
  <g id="cat_herramientas" transform="translate(0 -61)">
    <g id="Group_387" data-name="Group 387" transform="translate(0 61)">
      <path id="Path_846" data-name="Path 846" class="" d="M32.133,81.172V78a14.788,14.788,0,0,0-3.07-9.05,15.287,15.287,0,0,0-7-5.1,3,3,0,0,0-3-2.854h-4a3,3,0,0,0-3,2.854,15.287,15.287,0,0,0-7,5.1A14.788,14.788,0,0,0,2,78v3.172A3,3,0,0,0,3,87H31.133a3,3,0,0,0,1-5.828ZM4,78a13.016,13.016,0,0,1,4.067-9.39V72a1,1,0,0,0,2,0V67.041a13.008,13.008,0,0,1,2-1.045v8a1,1,0,0,0,2,0V64.6s0-.005,0-.008V64a1,1,0,0,1,1-1h4a1,1,0,0,1,1,1v.587s0,.006,0,.009V74a1,1,0,0,0,2,0V66a13.019,13.019,0,0,1,2,1.045V72a1,1,0,0,0,2,0V68.61A13.016,13.016,0,0,1,30.133,78v3H4Zm27.133,7H3a1,1,0,1,1,0-2H31.133a1,1,0,0,1,0,2Z" transform="translate(0 -61)"/>
    </g>
  </g>
</svg>
